{"title":"4.3.2.1.BRRip.XviD.Feel-Free","uid":5859469,"size":1993874455,"categoryP":"video","categoryS":"movies","magnet":"?xt=urn:btih:de28a7264c2871671b703d1fb96be0ab92339c95&amp;dn=4.3.2.1.BRRip.XviD.Feel-Free&amp;tr=udp%3A%2F%2Ftracker.openbittorrent.com%3A80&amp;tr=udp%3A%2F%2Fopen.demonii.com%3A1337&amp;tr=udp%3A%2F%2Ftracker.coppersurfer.tk%3A6969&amp;tr=udp%3A%2F%2Fexodus.desync.com%3A6969","seeders":0,"leechers":0,"uploader":"neon","files":-1,"time":1285909176,"description":"Genre:Crime | Thriller\nLanguage:English\n &lt;a href=&quot; http://www.imdb.com/title/tt1514041/&quot; rel=&quot;nofollow&quot; target=&quot;_NEW&quot;&gt; http://www.imdb.com/title/tt1514041/&lt;/a&gt;\nSource:BluRay.x264.ALLiANCE\n\nGeneral\nComplete name :4.3.2.1.BRRip.XviD.Feel-Free\nFormat : AVI\nFormat/Info : Audio Video Interleave\nFile size : 1.86 GiB\nDuration : 1h 56mn\nOverall bit rate : 2 278 Kbps\nVideo #0\nMuxing mode : Packed bitstream\nCodec ID : XVID\nCodec ID/Hint : XviD\nDuration : 1h 56mn\nBit rate : 1 820 Kbps\nWidth : 720 pixels\nHeight : 384 pixels\nDisplay aspect ratio : 1.875\nFrame rate : 23.976 fps\nResolution : 24 bits\nColorimetry : 4:2:0\nScan type : Progressive\nBits/(Pixel*Frame) : 0.275\nStream size : 1.48 GiB (80%)\nWriting library : XviD 1.2.1 (UTC 2008-12-04)\nAudio #1\nID : 1\nFormat : AC-3\nFormat/Info : Audio Coding 3\nCodec ID : 2000\nDuration : 1h 56mn\nBit rate mode : Constant\nBit rate : 448 Kbps\nChannel(s) : 6 channels\nChannel positions : Front: L C R, Surround: L R, LFE\nSampling rate : 44.1 KHz\nStream size : 374 MiB (20%)\nAlignment : Split accross interleaves\nInterleave, duration : 42 ms (1.00 video frame)\nInterleave, preload duration : 500 ms\n\nPlot:\nWhile Jo (Roberts) is chained down in a dead end supermarket job, her friends are all out on their own separate adventures: Cassandra (Egerton) is jetting off to New York to meet her Internet boyfriend; Kerrys (Warren-Markland) is on a one woman crusade fighting for female liberation and Shannon (Lovibond) is on a one way trip to meet her maker. But a chance encounter with some diamond thieves sends their separate worlds on a collision course with not only each other, but fate itself. These 4 girls are about to have 3 days they will never forget, spanning to 2 cities. That is ... if they survive","torrent":{"xt":"urn:btih:de28a7264c2871671b703d1fb96be0ab92339c95","amp;dn":"4.3.2.1.BRRip.XviD.Feel-Free","amp;tr":["udp%3A%2F%2Ftracker.openbittorrent.com%3A80","udp%3A%2F%2Fopen.demonii.com%3A1337","udp%3A%2F%2Ftracker.coppersurfer.tk%3A6969","udp%3A%2F%2Fexodus.desync.com%3A6969"],"infoHash":"de28a7264c2871671b703d1fb96be0ab92339c95","infoHashBuffer":{"type":"Buffer","data":[222,40,167,38,76,40,113,103,27,112,61,31,185,107,224,171,146,51,156,149]},"announce":[],"urlList":[]}}